<svg width="18" height="16" viewBox="0 0 18 16" fill="none" xmlns="http://www.w3.org/2000/svg">
<path d="M0.219375 7.46938L6.96937 0.719375C7.1101 0.578644 7.30098 0.499583 7.5 0.499582C7.69902 0.499582 7.88989 0.578644 8.03062 0.719375C8.17135 0.860106 8.25042 1.05098 8.25042 1.25C8.25042 1.44902 8.17135 1.63989 8.03062 1.78063L2.56031 7.25L17.25 7.25C17.4489 7.25 17.6397 7.32902 17.7803 7.46967C17.921 7.61032 18 7.80109 18 8C18 8.19891 17.921 8.38968 17.7803 8.53033C17.6397 8.67098 17.4489 8.75 17.25 8.75L2.56031 8.75L8.03063 14.2194C8.17136 14.3601 8.25042 14.551 8.25042 14.75C8.25042 14.949 8.17136 15.1399 8.03063 15.2806C7.88989 15.4214 7.69902 15.5004 7.5 15.5004C7.30098 15.5004 7.11011 15.4214 6.96937 15.2806L0.219375 8.53063C0.149642 8.46097 0.0943216 8.37826 0.056579 8.28721C0.0188363 8.19616 -0.000590018 8.09856 -0.000590026 8C-0.000590035 7.90144 0.0188363 7.80384 0.0565789 7.7128C0.0943215 7.62175 0.149642 7.53903 0.219375 7.46938Z" fill="#D9D9D9"/>
</svg>
