<svg width="13" height="14" viewBox="0 0 13 14" fill="none" xmlns="http://www.w3.org/2000/svg">
<path d="M12.4484 4.34822C12.3934 4.29647 12.3267 4.25879 12.2539 4.23838C12.1812 4.21798 12.1046 4.21546 12.0307 4.23104C11.9396 3.90383 11.7849 3.59784 11.5752 3.33063C11.3656 3.06343 11.1052 2.84027 10.8091 2.67399C10.513 2.50771 10.1869 2.40158 9.84961 2.3617C9.51233 2.32181 9.1705 2.34896 8.84374 2.44158C8.63808 1.9928 8.30789 1.61249 7.89242 1.34586C7.47695 1.07924 6.99366 0.9375 6.49999 0.9375C6.00633 0.9375 5.52304 1.07924 5.10756 1.34586C4.69209 1.61249 4.3619 1.9928 4.15624 2.44158C3.82957 2.34884 3.48779 2.32155 3.15054 2.36128C2.81328 2.401 2.4872 2.50697 2.19102 2.67308C1.89483 2.83919 1.63439 3.06218 1.42463 3.32924C1.21488 3.5963 1.05995 3.90217 0.968743 4.22928C0.89174 4.21348 0.811999 4.21729 0.736857 4.24038C0.661715 4.26346 0.593585 4.30507 0.538735 4.36138C0.483884 4.41769 0.444076 4.48689 0.422971 4.56261C0.401867 4.63833 0.400144 4.71815 0.417962 4.79471L2.20859 12.4025C2.25706 12.6082 2.3736 12.7915 2.5393 12.9226C2.70501 13.0538 2.91016 13.1251 3.12148 13.125H9.87851C10.0898 13.1251 10.295 13.0538 10.4607 12.9226C10.6264 12.7915 10.7429 12.6082 10.7914 12.4025L12.5814 4.79471C12.6001 4.71515 12.5977 4.63209 12.5743 4.55377C12.551 4.47545 12.5076 4.40459 12.4484 4.34822ZM3.45312 3.28123C3.72102 3.28048 3.98493 3.34611 4.22128 3.47225C4.28509 3.50609 4.35585 3.52474 4.42805 3.52672C4.50025 3.5287 4.57194 3.51398 4.63751 3.48369C4.70308 3.4534 4.76076 3.40837 4.80605 3.35211C4.85135 3.29585 4.88303 3.22988 4.89863 3.15936C4.97976 2.79515 5.18263 2.46948 5.47375 2.23608C5.76487 2.00268 6.12686 1.87549 6.49999 1.87549C6.87313 1.87549 7.23511 2.00268 7.52624 2.23608C7.81736 2.46948 8.02022 2.79515 8.10136 3.15936C8.11695 3.22988 8.14864 3.29585 8.19393 3.35211C8.23923 3.40837 8.29691 3.4534 8.36248 3.48369C8.42805 3.51398 8.49973 3.5287 8.57193 3.52672C8.64413 3.52474 8.7149 3.50609 8.7787 3.47225C8.99568 3.35715 9.23573 3.29225 9.48114 3.28231C9.72655 3.27238 9.97106 3.31767 10.1966 3.41485C10.4222 3.51203 10.6231 3.65861 10.7844 3.84379C10.9458 4.02896 11.0635 4.248 11.1289 4.48475L8.86952 5.12928L6.84863 4.32069C6.62519 4.23135 6.37596 4.23135 6.15253 4.32069L4.13105 5.13045L1.87109 4.48475C1.96675 4.13866 2.17331 3.83352 2.45908 3.61612C2.74485 3.39872 3.09405 3.28108 3.45312 3.28123ZM3.12148 12.1875L1.51425 5.35779L3.73202 5.99119L4.5582 12.1875H3.12148ZM7.49609 12.1875H5.5039L4.66894 5.92498L6.49999 5.19256L8.33105 5.92498L7.49609 12.1875ZM9.87851 12.1875H8.44179L9.26796 5.99119L11.4857 5.35779L9.87851 12.1875Z" fill="black"/>
</svg>
