<svg width="15" height="11" viewBox="0 0 15 11" fill="none" xmlns="http://www.w3.org/2000/svg">
<path d="M14.5312 4.67966H12.8355L10.0195 0.798992C9.94565 0.697593 9.84951 0.61449 9.73848 0.556075C9.62745 0.497659 9.50451 0.465489 9.3791 0.462037C9.25369 0.458584 9.12916 0.483943 9.01508 0.536162C8.90101 0.588381 8.80044 0.666069 8.72109 0.76325L7.96465 1.63747C7.9616 1.64052 7.95885 1.64385 7.95644 1.64743C7.90153 1.71565 7.83202 1.7707 7.75303 1.80852C7.67404 1.84634 7.58758 1.86597 7.5 1.86597C7.41242 1.86597 7.32596 1.84634 7.24697 1.80852C7.16798 1.7707 7.09847 1.71565 7.04355 1.64743C7.04115 1.64385 7.0384 1.64052 7.03535 1.63747L6.28125 0.76325C6.20194 0.665628 6.10123 0.587552 5.98693 0.535059C5.87263 0.482565 5.74778 0.45706 5.62205 0.460515C5.49632 0.463969 5.37306 0.496292 5.26181 0.554983C5.15056 0.613674 5.0543 0.697162 4.98047 0.798992L2.16445 4.67966H0.46875C0.37551 4.67966 0.286089 4.7167 0.220158 4.78263C0.154227 4.84856 0.117188 4.93798 0.117188 5.03122C0.117188 5.12446 0.154227 5.21388 0.220158 5.27981C0.286089 5.34574 0.37551 5.38278 0.46875 5.38278H14.5312C14.6245 5.38278 14.7139 5.34574 14.7798 5.27981C14.8458 5.21388 14.8828 5.12446 14.8828 5.03122C14.8828 4.93798 14.8458 4.84856 14.7798 4.78263C14.7139 4.7167 14.6245 4.67966 14.5312 4.67966ZM5.55176 1.21208C5.56241 1.19782 5.57616 1.18618 5.59197 1.17803C5.60779 1.16988 5.62526 1.16544 5.64304 1.16505C5.66083 1.16465 5.67848 1.16831 5.69464 1.17575C5.7108 1.18319 5.72506 1.19421 5.73633 1.20798L5.74512 1.21794L6.49863 2.09216C6.61907 2.24177 6.77158 2.36241 6.94491 2.44517C7.11823 2.52793 7.30793 2.57068 7.5 2.57028C7.69207 2.57068 7.88177 2.52793 8.05509 2.44517C8.22842 2.36241 8.38093 2.24177 8.50137 2.09216L9.25781 1.21794L9.2666 1.20798C9.27787 1.19421 9.29213 1.18319 9.30829 1.17575C9.32445 1.16831 9.3421 1.16465 9.35989 1.16505C9.37767 1.16544 9.39514 1.16988 9.41096 1.17803C9.42677 1.18618 9.44053 1.19782 9.45117 1.21208L11.9707 4.67966H3.0334L5.55176 1.21208ZM10.5469 6.55466C10.0388 6.55467 9.54995 6.7488 9.18029 7.09734C8.81062 7.44587 8.58809 7.92247 8.5582 8.42966H6.4418C6.41233 7.93294 6.19804 7.46523 5.8411 7.11855C5.48416 6.77187 5.0104 6.57132 4.51303 6.55635C4.01567 6.54138 3.53071 6.71308 3.15356 7.03767C2.77642 7.36226 2.53439 7.81623 2.47511 8.31028C2.41582 8.80432 2.54357 9.30267 2.83321 9.70727C3.12285 10.1119 3.55342 10.3934 4.04021 10.4966C4.52699 10.5997 5.03475 10.5169 5.46358 10.2645C5.89241 10.0122 6.21127 9.60842 6.35742 9.13278H8.64258C8.75102 9.48519 8.95514 9.80059 9.23221 10.0439C9.50928 10.2871 9.84843 10.4488 10.2119 10.5107C10.5754 10.5727 10.9489 10.5325 11.2909 10.3948C11.633 10.257 11.93 10.0271 12.1491 9.73047C12.3682 9.43389 12.5006 9.08233 12.5317 8.71492C12.5628 8.34752 12.4914 7.97869 12.3253 7.6495C12.1592 7.32031 11.905 7.04366 11.591 6.85036C11.2771 6.65706 10.9156 6.5547 10.5469 6.55466ZM4.45312 9.83591C4.19817 9.83591 3.94895 9.7603 3.73696 9.61866C3.52498 9.47701 3.35975 9.27569 3.26219 9.04014C3.16462 8.8046 3.13909 8.54541 3.18883 8.29536C3.23857 8.04531 3.36134 7.81562 3.54162 7.63534C3.7219 7.45506 3.95159 7.33229 4.20164 7.28255C4.45169 7.23281 4.71088 7.25834 4.94643 7.3559C5.18197 7.45347 5.3833 7.61869 5.52494 7.83068C5.66658 8.04266 5.74219 8.29189 5.74219 8.54684C5.74219 8.71612 5.70884 8.88375 5.64406 9.04014C5.57928 9.19654 5.48433 9.33865 5.36463 9.45835C5.24493 9.57805 5.10282 9.673 4.94643 9.73778C4.79003 9.80256 4.62241 9.83591 4.45312 9.83591ZM10.5469 9.83591C10.2919 9.83591 10.0427 9.7603 9.83071 9.61866C9.61872 9.47701 9.4535 9.27569 9.35594 9.04014C9.25837 8.8046 9.23284 8.54541 9.28258 8.29536C9.33232 8.04531 9.45509 7.81562 9.63537 7.63534C9.81565 7.45506 10.0453 7.33229 10.2954 7.28255C10.5454 7.23281 10.8046 7.25834 11.0402 7.3559C11.2757 7.45347 11.477 7.61869 11.6187 7.83068C11.7603 8.04266 11.8359 8.29189 11.8359 8.54684C11.8359 8.88872 11.7001 9.2166 11.4584 9.45835C11.2166 9.70009 10.8888 9.83591 10.5469 9.83591Z" fill="black"/>
</svg>
