<svg width="15" height="13" viewBox="0 0 15 13" fill="none" xmlns="http://www.w3.org/2000/svg">
<path d="M10.4297 0.640625C9.25254 0.640625 8.20781 1.10527 7.5 1.90391C6.79219 1.10527 5.74746 0.640625 4.57031 0.640625C3.54505 0.641865 2.56214 1.0497 1.83717 1.77467C1.1122 2.49964 0.704365 3.48255 0.703125 4.50781C0.703125 8.74648 6.90293 12.1332 7.1666 12.2756C7.26906 12.3308 7.38362 12.3597 7.5 12.3597C7.61638 12.3597 7.73094 12.3308 7.8334 12.2756C8.09707 12.1332 14.2969 8.74648 14.2969 4.50781C14.2956 3.48255 13.8878 2.49964 13.1628 1.77467C12.4379 1.0497 11.4549 0.641865 10.4297 0.640625ZM10.108 8.98203C9.29195 9.67451 8.4196 10.2978 7.5 10.8453C6.5804 10.2978 5.70805 9.67451 4.89199 8.98203C3.62227 7.89277 2.10938 6.23164 2.10938 4.50781C2.10938 3.85513 2.36865 3.22918 2.83017 2.76767C3.29168 2.30615 3.91763 2.04688 4.57031 2.04688C5.61328 2.04688 6.48633 2.59766 6.84902 3.48477C6.90181 3.61409 6.99192 3.72475 7.10786 3.80265C7.2238 3.88055 7.36032 3.92216 7.5 3.92216C7.63968 3.92216 7.7762 3.88055 7.89214 3.80265C8.00808 3.72475 8.09819 3.61409 8.15098 3.48477C8.51367 2.59766 9.38672 2.04688 10.4297 2.04688C11.0824 2.04688 11.7083 2.30615 12.1698 2.76767C12.6313 3.22918 12.8906 3.85513 12.8906 4.50781C12.8906 6.23164 11.3777 7.89277 10.108 8.98203Z" fill="black"/>
</svg>
