<svg width="13" height="13" viewBox="0 0 13 13" fill="none" xmlns="http://www.w3.org/2000/svg">
<path d="M12.4999 0.968745C12.3582 0.82698 12.1898 0.71459 12.0045 0.638017C11.8193 0.561445 11.6207 0.522197 11.4202 0.522524C11.2197 0.522851 11.0213 0.562745 10.8362 0.639921C10.6512 0.717096 10.4832 0.830035 10.3419 0.972261L0.154821 11.4219C0.111044 11.4665 0.0799544 11.522 0.0647537 11.5826C0.049553 11.6432 0.0507912 11.7068 0.0683408 11.7668C0.0858904 11.8268 0.119117 11.881 0.164597 11.9239C0.210077 11.9668 0.266166 11.9967 0.327086 12.0107C0.989955 12.1643 1.66815 12.242 2.34857 12.2422C4.28216 12.2422 6.2222 11.6117 8.04505 10.3754C9.889 9.12441 10.956 7.71464 11.0005 7.65546C11.0514 7.58771 11.0761 7.50386 11.0701 7.41935C11.064 7.33484 11.0277 7.25535 10.9677 7.1955L9.78939 6.01543L12.504 3.12148C12.7874 2.83463 12.9459 2.44746 12.9452 2.04427C12.9444 1.64108 12.7844 1.25451 12.4999 0.968745ZM10.2464 7.46855C9.48222 8.35937 8.60327 9.14493 7.63256 9.80468C5.51263 11.2373 3.32298 11.7875 1.11341 11.4453L7.58685 4.80605L10.2464 7.46855ZM12.0042 2.62812L11.9966 2.63632L9.29369 5.51796L8.07787 4.30214L10.8423 1.46679C10.9963 1.31295 11.2051 1.22658 11.4228 1.22669C11.6405 1.2268 11.8492 1.31338 12.0031 1.46738C12.1569 1.62138 12.2433 1.83019 12.2432 2.04787C12.2431 2.26555 12.1565 2.47427 12.0025 2.62812H12.0042Z" fill="black"/>
</svg>
