<svg width="13" height="13" viewBox="0 0 13 13" fill="none" xmlns="http://www.w3.org/2000/svg">
<path d="M12.9143 3.14315C12.8745 3.01994 12.7992 2.91127 12.6977 2.83087C12.5962 2.75046 12.4732 2.70193 12.3442 2.69139L10.0924 2.50096L9.2135 0.450181C9.16246 0.332273 9.07804 0.231869 8.97065 0.161336C8.86326 0.0908034 8.73758 0.0532227 8.6091 0.0532227C8.48062 0.0532227 8.35494 0.0908034 8.24755 0.161336C8.14016 0.231869 8.05575 0.332273 8.00471 0.450181L7.1258 2.50096L4.87521 2.69139C4.74671 2.70141 4.62407 2.74932 4.5228 2.82905C4.42153 2.90878 4.34618 3.01676 4.30629 3.13932C4.26639 3.26189 4.26375 3.39353 4.29869 3.51759C4.33362 3.64166 4.40457 3.75258 4.50256 3.83631L6.20705 5.29178L5.69611 7.45506C5.66684 7.57948 5.6749 7.70977 5.7193 7.82962C5.7637 7.94947 5.84246 8.05357 5.94572 8.12889C6.05008 8.20578 6.17481 8.25013 6.30428 8.25638C6.43375 8.26264 6.56218 8.23052 6.67346 8.16405L8.60705 7.01327L10.5436 8.16405C10.6548 8.23059 10.7833 8.26276 10.9128 8.2565C11.0422 8.25025 11.167 8.20585 11.2713 8.12889C11.3746 8.0536 11.4533 7.94948 11.4976 7.8296C11.5419 7.70972 11.5498 7.57942 11.5203 7.45506L11.0117 5.29178L12.7156 3.8369C12.8137 3.75389 12.8849 3.64366 12.9202 3.52016C12.9556 3.39667 12.9535 3.26547 12.9143 3.14315ZM10.5319 4.77792C10.4404 4.85528 10.3723 4.95648 10.3349 5.07026C10.2976 5.18405 10.2925 5.30596 10.3203 5.42245L10.8119 7.50545L8.94689 6.39686C8.84487 6.3359 8.72824 6.30371 8.6094 6.30371C8.49055 6.30371 8.37392 6.3359 8.2719 6.39686L6.40744 7.50545L6.89846 5.42186C6.92667 5.30544 6.92187 5.18346 6.88461 5.06961C6.84735 4.95576 6.7791 4.85455 6.68752 4.77733L5.05334 3.38221L7.21252 3.1994C7.33126 3.18961 7.4451 3.14768 7.54182 3.07811C7.63854 3.00854 7.7145 2.91394 7.76154 2.80448L8.6094 0.826353L9.45783 2.80448C9.50478 2.9139 9.58063 3.00847 9.67725 3.07804C9.77387 3.14762 9.88761 3.18957 10.0063 3.1994L12.166 3.38221L10.5319 4.77792ZM3.93596 6.27967L0.654707 9.56092C0.588063 9.62302 0.499916 9.65683 0.408837 9.65522C0.317758 9.65362 0.230859 9.61672 0.166447 9.55231C0.102035 9.4879 0.0651383 9.401 0.0635313 9.30992C0.0619244 9.21884 0.0957321 9.13069 0.157832 9.06405L3.43908 5.7828C3.50573 5.7207 3.59387 5.68689 3.68495 5.6885C3.77603 5.6901 3.86293 5.727 3.92734 5.79141C3.99175 5.85583 4.02865 5.94272 4.03026 6.0338C4.03187 6.12488 3.99806 6.21303 3.93596 6.27967ZM4.87346 9.06405C4.93929 9.12997 4.97627 9.21932 4.97627 9.31249C4.97627 9.40565 4.93929 9.49501 4.87346 9.56092L1.59221 12.8422C1.52556 12.9043 1.43742 12.9381 1.34634 12.9365C1.25526 12.9349 1.16836 12.898 1.10395 12.8336C1.03953 12.7691 1.00264 12.6822 1.00103 12.5912C0.999424 12.5001 1.03323 12.4119 1.09533 12.3453L4.37658 9.06405C4.4425 8.99821 4.53186 8.96123 4.62502 8.96123C4.71818 8.96123 4.80754 8.99821 4.87346 9.06405ZM9.09221 9.06405C9.15804 9.12997 9.19502 9.21932 9.19502 9.31249C9.19502 9.40565 9.15804 9.49501 9.09221 9.56092L5.81096 12.8422C5.74431 12.9043 5.65617 12.9381 5.56509 12.9365C5.47401 12.9349 5.38711 12.898 5.3227 12.8336C5.25828 12.7691 5.22139 12.6822 5.21978 12.5912C5.21817 12.5001 5.25198 12.4119 5.31408 12.3453L8.59533 9.06405C8.62798 9.03136 8.66676 9.00543 8.70944 8.98774C8.75211 8.97005 8.79786 8.96094 8.84406 8.96094C8.89026 8.96094 8.93601 8.97005 8.97869 8.98774C9.02137 9.00543 9.06014 9.03136 9.09279 9.06405H9.09221Z" fill="black"/>
</svg>
