<svg width="14" height="13" viewBox="0 0 14 13" fill="none" xmlns="http://www.w3.org/2000/svg">
<path d="M13.5312 7.4375C13.5312 7.56182 13.4819 7.68105 13.394 7.76896C13.306 7.85686 13.1868 7.90625 13.0625 7.90625C12.9382 7.90625 12.819 7.85686 12.731 7.76896C12.6431 7.68105 12.5938 7.56182 12.5938 7.4375C12.592 5.94618 11.9989 4.51643 10.9443 3.46191C9.88982 2.40739 8.46007 1.81421 6.96875 1.8125C5.6017 1.81405 4.29109 2.35779 3.32444 3.32444C2.35779 4.29109 1.81405 5.6017 1.8125 6.96875C1.8139 8.21152 2.3082 9.403 3.18698 10.2818C4.06575 11.1605 5.25723 11.6549 6.5 11.6562C7.6185 11.655 8.69084 11.2101 9.48174 10.4192C10.2726 9.62834 10.7175 8.556 10.7188 7.4375C10.7177 6.44327 10.3222 5.49008 9.6192 4.78705C8.91618 4.08402 7.96298 3.68859 6.96875 3.6875C6.09879 3.68843 5.26474 4.03443 4.64958 4.64958C4.03443 5.26474 3.68843 6.09879 3.6875 6.96875C3.68828 7.71443 3.98484 8.42935 4.51212 8.95663C5.0394 9.48391 5.75432 9.78047 6.5 9.78125C6.80779 9.78125 7.11256 9.72063 7.39691 9.60284C7.68127 9.48506 7.93964 9.31242 8.15728 9.09478C8.37492 8.87714 8.54756 8.61877 8.66534 8.33441C8.78313 8.05006 8.84375 7.74529 8.84375 7.4375C8.84375 6.94022 8.64621 6.46331 8.29457 6.11167C7.94294 5.76004 7.46603 5.5625 6.96875 5.5625C6.59579 5.5625 6.2381 5.71066 5.97438 5.97438C5.71066 6.2381 5.5625 6.59579 5.5625 6.96875C5.5625 7.21739 5.66127 7.45585 5.83709 7.63166C6.0129 7.80748 6.25136 7.90625 6.5 7.90625C6.62432 7.90625 6.74355 7.85686 6.83146 7.76896C6.91936 7.68105 6.96875 7.56182 6.96875 7.4375C6.84443 7.4375 6.7252 7.38811 6.63729 7.30021C6.54939 7.2123 6.5 7.09307 6.5 6.96875C6.5 6.84443 6.54939 6.7252 6.63729 6.63729C6.7252 6.54939 6.84443 6.5 6.96875 6.5C7.21739 6.5 7.45585 6.59877 7.63166 6.77459C7.80748 6.9504 7.90625 7.18886 7.90625 7.4375C7.90625 7.81046 7.75809 8.16815 7.49437 8.43187C7.23065 8.69559 6.87296 8.84375 6.5 8.84375C6.00272 8.84375 5.52581 8.64621 5.17417 8.29457C4.82254 7.94294 4.625 7.46603 4.625 6.96875C4.625 6.34715 4.87193 5.75101 5.31147 5.31147C5.75101 4.87193 6.34715 4.625 6.96875 4.625C7.71443 4.62578 8.42935 4.92234 8.95663 5.44962C9.48391 5.9769 9.78047 6.69182 9.78125 7.4375C9.78032 8.30746 9.43432 9.14151 8.81917 9.75667C8.20401 10.3718 7.36996 10.7178 6.5 10.7188C5.50577 10.7177 4.55258 10.3222 3.84955 9.6192C3.14652 8.91618 2.75109 7.96298 2.75 6.96875C2.75124 5.85025 3.19611 4.77791 3.98701 3.98701C4.77791 3.19611 5.85025 2.75124 6.96875 2.75C8.21152 2.7514 9.403 3.2457 10.2818 4.12448C11.1605 5.00325 11.6549 6.19473 11.6562 7.4375C11.6547 8.80455 11.111 10.1152 10.1443 11.0818C9.17766 12.0485 7.86705 12.5922 6.5 12.5938C5.00868 12.592 3.57893 11.9989 2.52441 10.9443C1.46989 9.88982 0.876706 8.46007 0.875 6.96875C0.876706 5.35311 1.51927 3.80413 2.6617 2.6617C3.80413 1.51927 5.35311 0.876706 6.96875 0.875C8.70866 0.876861 10.3768 1.56886 11.6071 2.79917C12.8374 4.02947 13.5294 5.69759 13.5312 7.4375Z" fill="black"/>
</svg>
