<svg width="11" height="13" viewBox="0 0 11 13" fill="none" xmlns="http://www.w3.org/2000/svg">
<path d="M9.71875 0.523438H8.78125C8.56369 0.523438 8.35504 0.609863 8.2012 0.763702C8.04737 0.91754 7.96094 1.12619 7.96094 1.34375V2.28125C7.96094 2.31233 7.94859 2.34214 7.92662 2.36411C7.90464 2.38609 7.87483 2.39844 7.84375 2.39844H6.90625C6.87517 2.39844 6.84537 2.38609 6.82339 2.36411C6.80141 2.34214 6.78906 2.31233 6.78906 2.28125V1.34375C6.78906 1.12619 6.70264 0.91754 6.5488 0.763702C6.39496 0.609863 6.18631 0.523438 5.96875 0.523438H5.03125C4.81369 0.523438 4.60504 0.609863 4.4512 0.763702C4.29737 0.91754 4.21094 1.12619 4.21094 1.34375V2.28125C4.21094 2.31233 4.19859 2.34214 4.17662 2.36411C4.15464 2.38609 4.12483 2.39844 4.09375 2.39844H3.15625C3.12517 2.39844 3.09537 2.38609 3.07339 2.36411C3.05141 2.34214 3.03906 2.31233 3.03906 2.28125V1.34375C3.03906 1.12619 2.95264 0.91754 2.7988 0.763702C2.64496 0.609863 2.43631 0.523438 2.21875 0.523438H1.28125C1.06369 0.523438 0.855042 0.609863 0.701204 0.763702C0.547365 0.91754 0.46094 1.12619 0.46094 1.34375V3.9623C0.460688 4.06998 0.481791 4.17664 0.523026 4.27611C0.564262 4.37558 0.624812 4.46588 0.701174 4.5418L1.36446 5.20508C1.38625 5.22705 1.39846 5.25675 1.39844 5.28769V11.6562C1.39844 11.8738 1.48487 12.0825 1.6387 12.2363C1.79254 12.3901 2.00119 12.4766 2.21875 12.4766H8.78125C8.99881 12.4766 9.20746 12.3901 9.3613 12.2363C9.51514 12.0825 9.60156 11.8738 9.60156 11.6562V5.28769C9.60154 5.25675 9.61376 5.22705 9.63555 5.20508L10.2988 4.5418C10.3752 4.46588 10.4357 4.37558 10.477 4.27611C10.5182 4.17664 10.5393 4.06998 10.5391 3.9623V1.34375C10.5391 1.12619 10.4526 0.91754 10.2988 0.763702C10.145 0.609863 9.93631 0.523438 9.71875 0.523438ZM6.55469 11.7734H4.44531V7.90625C4.44531 7.62653 4.55643 7.35827 4.75423 7.16047C4.95202 6.96268 5.22028 6.85156 5.5 6.85156C5.77972 6.85156 6.04799 6.96268 6.24578 7.16047C6.44357 7.35827 6.55469 7.62653 6.55469 7.90625V11.7734ZM9.83594 3.9623C9.83596 3.99325 9.82375 4.02295 9.80196 4.04492L9.13867 4.7082C9.06231 4.78412 9.00176 4.87442 8.96053 4.97389C8.91929 5.07336 8.89819 5.18002 8.89844 5.28769V11.6562C8.89844 11.6873 8.88609 11.7171 8.86412 11.7391C8.84214 11.7611 8.81233 11.7734 8.78125 11.7734H7.25781V7.90625C7.25781 7.44005 7.07262 6.99294 6.74296 6.66329C6.41331 6.33363 5.9662 6.14844 5.5 6.14844C5.0338 6.14844 4.58669 6.33363 4.25704 6.66329C3.92739 6.99294 3.74219 7.44005 3.74219 7.90625V11.7734H2.21875C2.18767 11.7734 2.15787 11.7611 2.13589 11.7391C2.11391 11.7171 2.10156 11.6873 2.10156 11.6562V5.28769C2.10182 5.18002 2.08071 5.07336 2.03948 4.97389C1.99824 4.87442 1.93769 4.78412 1.86133 4.7082L1.19805 4.04492C1.17626 4.02295 1.16404 3.99325 1.16406 3.9623V1.34375C1.16406 1.31267 1.17641 1.28286 1.19839 1.26089C1.22036 1.23891 1.25017 1.22656 1.28125 1.22656H2.21875C2.24983 1.22656 2.27964 1.23891 2.30162 1.26089C2.32359 1.28286 2.33594 1.31267 2.33594 1.34375V2.28125C2.33594 2.49881 2.42237 2.70746 2.5762 2.8613C2.73004 3.01514 2.93869 3.10156 3.15625 3.10156H4.09375C4.20148 3.10156 4.30815 3.08034 4.40767 3.03912C4.5072 2.9979 4.59763 2.93747 4.6738 2.8613C4.74997 2.78513 4.8104 2.69469 4.85162 2.59517C4.89285 2.49565 4.91406 2.38898 4.91406 2.28125V1.34375C4.91406 1.31267 4.92641 1.28286 4.94839 1.26089C4.97037 1.23891 5.00017 1.22656 5.03125 1.22656H5.96875C5.99983 1.22656 6.02964 1.23891 6.05162 1.26089C6.07359 1.28286 6.08594 1.31267 6.08594 1.34375V2.28125C6.08594 2.49881 6.17237 2.70746 6.3262 2.8613C6.48004 3.01514 6.68869 3.10156 6.90625 3.10156H7.84375C8.06131 3.10156 8.26996 3.01514 8.4238 2.8613C8.57764 2.70746 8.66406 2.49881 8.66406 2.28125V1.34375C8.66406 1.31267 8.67641 1.28286 8.69839 1.26089C8.72036 1.23891 8.75017 1.22656 8.78125 1.22656H9.71875C9.74983 1.22656 9.77964 1.23891 9.80162 1.26089C9.82359 1.28286 9.83594 1.31267 9.83594 1.34375V3.9623Z" fill="black"/>
</svg>
