<svg width="15" height="12" viewBox="0 0 15 12" fill="none" xmlns="http://www.w3.org/2000/svg">
<path d="M10.6459 10.5449C10.6616 10.5889 10.6683 10.6357 10.6657 10.6823C10.6631 10.729 10.6512 10.7747 10.6307 10.8167C10.6103 10.8588 10.5816 10.8963 10.5465 10.9271C10.5113 10.9579 10.4704 10.9814 10.426 10.9962C10.3817 11.011 10.3348 11.0169 10.2882 11.0133C10.2416 11.0098 10.1962 10.997 10.1545 10.9757C10.1129 10.9544 10.076 10.9251 10.0459 10.8893C10.0157 10.8536 9.99303 10.8122 9.9791 10.7675L9.51035 9.3613C9.49468 9.31725 9.48794 9.27053 9.49054 9.22385C9.49315 9.17717 9.50503 9.13148 9.5255 9.08946C9.54598 9.04743 9.57463 9.00991 9.60978 8.97908C9.64493 8.94826 9.68587 8.92476 9.73021 8.90995C9.77455 8.89515 9.8214 8.88933 9.86802 8.89285C9.91464 8.89637 9.96008 8.90915 10.0017 8.93044C10.0433 8.95174 10.0803 8.98112 10.1104 9.01687C10.1405 9.05262 10.1632 9.09402 10.1771 9.13864L10.6459 10.5449ZM7.5 8.89841C7.40676 8.89841 7.31734 8.93545 7.25141 9.00138C7.18548 9.06731 7.14844 9.15673 7.14844 9.24997V11.125C7.14844 11.2182 7.18548 11.3076 7.25141 11.3736C7.31734 11.4395 7.40676 11.4765 7.5 11.4765C7.59324 11.4765 7.68266 11.4395 7.74859 11.3736C7.81452 11.3076 7.85156 11.2182 7.85156 11.125V9.24997C7.85156 9.15673 7.81452 9.06731 7.74859 9.00138C7.68266 8.93545 7.59324 8.89841 7.5 8.89841ZM5.26758 8.91657C5.17915 8.88706 5.08263 8.89388 4.99924 8.93552C4.91584 8.97717 4.85239 9.05023 4.82285 9.13864L4.3541 10.5449C4.33843 10.5889 4.33169 10.6357 4.33429 10.6823C4.3369 10.729 4.34878 10.7747 4.36925 10.8167C4.38973 10.8588 4.41838 10.8963 4.45353 10.9271C4.48868 10.9579 4.52962 10.9814 4.57396 10.9962C4.6183 11.011 4.66515 11.0169 4.71177 11.0133C4.75839 11.0098 4.80383 10.997 4.84545 10.9757C4.88707 10.9544 4.92402 10.9251 4.95415 10.8893C4.98427 10.8536 5.00697 10.8122 5.0209 10.7675L5.48965 9.3613C5.51916 9.27287 5.51234 9.17635 5.47069 9.09295C5.42905 9.00956 5.35599 8.94611 5.26758 8.91657ZM14.4141 4.56247C14.4141 5.46305 13.6559 6.28454 12.2789 6.87458C10.9963 7.42419 9.29941 7.72653 7.5 7.72653C5.70059 7.72653 4.00371 7.42419 2.72109 6.87458C1.34414 6.28454 0.585938 5.46305 0.585938 4.56247C0.585938 3.32262 2.0543 2.23923 4.4291 1.71657C4.75427 1.19118 5.20837 0.75765 5.74826 0.457167C6.28815 0.156685 6.8959 -0.000771215 7.51377 -0.000242815C8.13165 0.000285585 8.73913 0.158781 9.27851 0.460186C9.81788 0.761592 10.2712 1.1959 10.5955 1.72184C12.9551 2.24684 14.4141 3.3279 14.4141 4.56247ZM4.57031 3.67419V3.84997C4.56997 3.98173 4.61435 4.1097 4.69621 4.21295C4.77806 4.3162 4.89254 4.38861 5.0209 4.41833C5.8349 4.5978 6.66646 4.68546 7.5 4.67966C8.33325 4.68619 9.16461 4.59932 9.97852 4.42067C10.1069 4.39095 10.2214 4.31854 10.3032 4.21529C10.3851 4.11204 10.4294 3.98407 10.4291 3.85231V3.62497C10.4291 2.84797 10.1204 2.10279 9.57102 1.55337C9.02159 1.00394 8.27642 0.695282 7.49941 0.695282H7.46016C5.86699 0.716375 4.57031 2.05231 4.57031 3.67419ZM13.7109 4.56247C13.7109 3.78141 12.634 3.00329 10.9688 2.53981C11.0779 2.89118 11.1332 3.25705 11.1328 3.62497V3.85466C11.1333 4.14524 11.035 4.42736 10.854 4.65468C10.673 4.88201 10.42 5.04103 10.1367 5.10563C9.27097 5.29647 8.38651 5.38944 7.5 5.38278C6.61349 5.38949 5.72903 5.29653 4.86328 5.10563C4.57997 5.04103 4.32704 4.88201 4.14603 4.65468C3.96503 4.42736 3.86669 4.14524 3.86719 3.85466V3.67477C3.86723 3.28778 3.92813 2.9032 4.04766 2.53513C2.37246 2.99802 1.28906 3.77848 1.28906 4.56247C1.28906 5.15544 1.91191 5.76247 2.99824 6.22829C4.19473 6.74098 5.79375 7.02341 7.5 7.02341C9.20625 7.02341 10.8053 6.74098 12.0018 6.22829C13.0881 5.76247 13.7109 5.15544 13.7109 4.56247Z" fill="black"/>
</svg>
